<?xml version="1.0" encoding="UTF-8" standalone="no" ?>
<!DOCTYPE svg PUBLIC "-//W3C//DTD SVG 1.1//EN" "http://www.w3.org/Graphics/SVG/1.1/DTD/svg11.dtd">
<svg xmlns="http://www.w3.org/2000/svg" xmlns:xlink="http://www.w3.org/1999/xlink" version="1.1" width="100" height="100" viewBox="0 0 100 100" xml:space="preserve">
<desc>Created with Fabric.js 4.6.0</desc>
<defs>
</defs>
<g transform="matrix(1 0 0 1 50 50)" id="3UHL38wfEQSx3YWgvKO29"  >
<path style="stroke: rgb(118,255,118); stroke-width: 5; stroke-dasharray: none; stroke-linecap: butt; stroke-dashoffset: 0; stroke-linejoin: miter; stroke-miterlimit: 4; fill: rgb(58,120,10); fill-rule: nonzero; opacity: 1;" vector-effect="non-scaling-stroke"  transform=" translate(0, 0)" d="M 0 -40 C 22.08 -40 40 -22.08 40 0 C 40 22.08 22.08 40 0 40 C -22.08 40 -40 22.08 -40 0 C -40 -22.08 -22.08 -40 0 -40 z" stroke-linecap="round" />
</g>
<g transform="matrix(1.09 0 0 1.09 49.93 49.88)" id="w-Z2KjthD-hlR6y4r4OKQ"  >
<path style="stroke: none; stroke-width: 1; stroke-dasharray: none; stroke-linecap: butt; stroke-dashoffset: 0; stroke-linejoin: miter; stroke-miterlimit: 4; fill: rgb(210,210,210); fill-rule: nonzero; opacity: 1;" vector-effect="non-scaling-stroke"  transform=" translate(-40, -30.5)" d="M 40 61 C 48.4 61 55.2 54.2 55.2 45.8 L 55.2 15.299999999999997 C 55.2 6.8 48.4 0 40 0 C 31.6 0 24.8 6.8 24.8 15.2 L 24.8 45.7 C 24.8 54.1 31.6 61 40 61 z" stroke-linecap="round" />
</g>
<g transform="matrix(1.09 0 0 1.09 49.93 34.36)" id="Pu3ughIql5DDUcgmgT-Ge"  >
<path style="stroke: none; stroke-width: 1; stroke-dasharray: none; stroke-linecap: butt; stroke-dashoffset: 0; stroke-linejoin: miter; stroke-miterlimit: 4; fill: rgb(58,120,10); fill-rule: nonzero; opacity: 1;" vector-effect="non-scaling-stroke"  transform=" translate(-40, -16.2)" d="M 51.4 28.6 L 51.4 15.2 C 51.4 8.899999999999999 46.3 3.799999999999999 40 3.799999999999999 C 33.7 3.799999999999999 28.6 8.899999999999999 28.6 15.2 L 28.6 28.5 L 51.4 28.6 L 51.4 28.6 z" stroke-linecap="round" />
</g>
<g transform="matrix(1.09 0 0 1.09 49.93 35.4)" id="1dk52G0OTYe8quNKcPUly"  >
<path style="stroke: none; stroke-width: 1; stroke-dasharray: none; stroke-linecap: butt; stroke-dashoffset: 0; stroke-linejoin: miter; stroke-miterlimit: 4; fill: rgb(210,210,210); fill-rule: nonzero; opacity: 1;" vector-effect="non-scaling-stroke"  transform=" translate(-40, -17.15)" d="M 34.3 22.9 C 34.3 24 33.4 24.799999999999997 32.4 24.799999999999997 C 31.4 24.799999999999997 30.5 23.9 30.5 22.9 C 30.5 21.9 31.4 21 32.4 21 C 33.4 21 34.3 21.8 34.3 22.9 z M 32.4 17.1 C 33.5 17.1 34.3 16.200000000000003 34.3 15.200000000000001 C 34.3 14.2 33.4 13.3 32.4 13.3 C 31.4 13.3 30.5 14.200000000000001 30.5 15.200000000000001 C 30.5 16.200000000000003 31.3 17.1 32.4 17.1 z M 36.2 17.1 C 35.1 17.1 34.300000000000004 18 34.300000000000004 19 C 34.300000000000004 20 35.2 20.9 36.2 20.9 C 37.2 20.9 38.1 20 38.1 19 C 38.1 18 37.2 17.1 36.2 17.1 z M 43.8 13.3 C 44.9 13.3 45.699999999999996 12.4 45.699999999999996 11.4 C 45.699999999999996 10.3 44.8 9.5 43.8 9.5 C 42.8 9.5 41.9 10.4 41.9 11.4 C 41.9 12.4 42.8 13.3 43.8 13.3 z M 40 17.1 C 41.1 17.1 41.9 16.200000000000003 41.9 15.200000000000001 C 41.9 14.2 41 13.3 40 13.3 C 39 13.3 38.1 14.200000000000001 38.1 15.200000000000001 C 38.1 16.200000000000003 38.9 17.1 40 17.1 z M 36.2 9.5 C 35.1 9.5 34.300000000000004 10.4 34.300000000000004 11.4 C 34.300000000000004 12.4 35.2 13.3 36.2 13.3 C 37.2 13.3 38.1 12.4 38.1 11.4 C 38.1 10.4 37.2 9.5 36.2 9.5 z M 40 21 C 38.9 21 38.1 21.9 38.1 22.9 C 38.1 23.9 39 24.799999999999997 40 24.799999999999997 C 41 24.799999999999997 41.9 23.9 41.9 22.9 C 41.9 21.9 41.1 21 40 21 z M 47.6 13.3 C 46.5 13.3 45.7 14.200000000000001 45.7 15.200000000000001 C 45.7 16.200000000000003 46.6 17.1 47.6 17.1 C 48.6 17.1 49.5 16.200000000000003 49.5 15.200000000000001 C 49.5 14.2 48.7 13.3 47.6 13.3 z M 47.6 21 C 46.5 21 45.7 21.9 45.7 22.9 C 45.7 23.9 46.6 24.799999999999997 47.6 24.799999999999997 C 48.6 24.799999999999997 49.5 23.9 49.5 22.9 C 49.5 21.9 48.7 21 47.6 21 z M 43.8 17.1 C 42.699999999999996 17.1 41.9 18 41.9 19 C 41.9 20 42.8 20.9 43.8 20.9 C 44.8 20.9 45.699999999999996 20 45.699999999999996 19 C 45.7 18 44.9 17.1 43.8 17.1 z" stroke-linecap="round" />
</g>
</svg>