<?xml version="1.0" encoding="UTF-8" standalone="no" ?>
<!DOCTYPE svg PUBLIC "-//W3C//DTD SVG 1.1//EN" "http://www.w3.org/Graphics/SVG/1.1/DTD/svg11.dtd">
<svg xmlns="http://www.w3.org/2000/svg" xmlns:xlink="http://www.w3.org/1999/xlink" version="1.1" width="100" height="100" viewBox="0 0 100 100" xml:space="preserve">
<desc>Created with Fabric.js 4.6.0</desc>
<defs>
</defs>
<g transform="matrix(1 0 0 1 50 50)" id="3UHL38wfEQSx3YWgvKO29"  >
<path style="stroke: rgb(118,255,118); stroke-width: 5; stroke-dasharray: none; stroke-linecap: butt; stroke-dashoffset: 0; stroke-linejoin: miter; stroke-miterlimit: 4; fill: rgb(58,120,10); fill-rule: nonzero; opacity: 1;" vector-effect="non-scaling-stroke"  transform=" translate(0, 0)" d="M 0 -40 C 22.08 -40 40 -22.08 40 0 C 40 22.08 22.08 40 0 40 C -22.08 40 -40 22.08 -40 0 C -40 -22.08 -22.08 -40 0 -40 z" stroke-linecap="round" />
</g>
<g transform="matrix(1 0 0 1 51 32.89)" id="AdbqjPNViqilI59y1hG5C"  >
<path style="stroke: none; stroke-width: 1; stroke-dasharray: none; stroke-linecap: butt; stroke-dashoffset: 0; stroke-linejoin: miter; stroke-miterlimit: 4; fill: rgb(214,214,214); fill-rule: nonzero; opacity: 1;" vector-effect="non-scaling-stroke"  transform=" translate(-30, -14.12)" d="M 30.8775 28.2428 L 60 14.1214 L 30.8775 0 L 30.8775 8.953 L 0 8.953 L 0 19.3146 L 30.8775 19.3146 z" stroke-linecap="round" />
</g>
<g transform="matrix(-1 0 0 1 51 62.89)" id="-oxP9OjUwoBihIBZc32jl"  >
<path style="stroke: none; stroke-width: 1; stroke-dasharray: none; stroke-linecap: butt; stroke-dashoffset: 0; stroke-linejoin: miter; stroke-miterlimit: 4; fill: rgb(214,214,214); fill-rule: nonzero; opacity: 1;" vector-effect="non-scaling-stroke"  transform=" translate(-30, -14.12)" d="M 30.8775 28.2428 L 60 14.1214 L 30.8775 0 L 30.8775 8.953 L 0 8.953 L 0 19.3146 L 30.8775 19.3146 z" stroke-linecap="round" />
</g>
</svg>